<?xml version="1.0" encoding="utf-8"?>
<!-- Generator: Adobe Illustrator 24.1.2, SVG Export Plug-In . SVG Version: 6.00 Build 0)  -->
<svg version="1.1" id="Layer_1" xmlns="http://www.w3.org/2000/svg" xmlns:xlink="http://www.w3.org/1999/xlink" x="0px" y="0px"
	 viewBox="0 0 512 512" style="enable-background:new 0 0 512 512;" xml:space="preserve">
<style type="text/css">
	.st0{fill-rule:evenodd;clip-rule:evenodd;fill:#FFFFFF;}
</style>
<g>
	<path class="st0" d="M220.06,154.27v-44.21h-34c-22.89,0-28.39-13.69-12.29-30.54l52.52-54.98c0.14-0.14,0.28-0.29,0.42-0.43
		l-0.29,0.32l14.26-14.94c8.18-8.55,21.46-8.55,29.64,0l30.15,31.54h-0.02l36.78,38.48c16.11,16.85,10.61,30.53-12.28,30.53
		l-33.98,0.01h-0.01l-0.01,44.21H220.06L220.06,154.27z"/>
	<path class="st0" d="M220.07,357.81v44.21h-34c-22.89,0-28.39,13.69-12.29,30.54l52.52,54.98c0.14,0.14,0.28,0.29,0.42,0.43
		l-0.29-0.32l14.26,14.94c8.18,8.55,21.46,8.55,29.64,0l30.15-31.54h-0.02l36.78-38.48c16.11-16.85,10.61-30.53-12.28-30.53
		l-33.98-0.01h-0.01l-0.01-44.21H220.07L220.07,357.81z"/>
	<path class="st0" d="M357.23,220.57h44.19v-34.02c0-22.9,13.68-28.41,30.53-12.29l54.95,52.55c0.14,0.14,0.29,0.28,0.43,0.42
		l-0.32-0.29l14.93,14.26c8.54,8.18,8.54,21.47,0,29.65l-31.53,30.17V301l-38.46,36.8c-16.85,16.12-30.52,10.61-30.52-12.29
		l-0.01-34v-0.01l-44.19-0.01V220.57L357.23,220.57z"/>
	<path class="st0" d="M153.8,220.58h-44.19v-34.02c0-22.9-13.68-28.41-30.53-12.29l-54.95,52.55c-0.14,0.14-0.29,0.28-0.43,0.42
		l0.32-0.29L9.1,241.21c-8.54,8.18-8.54,21.47,0,29.65l31.53,30.17v-0.02l38.46,36.8c16.85,16.12,30.52,10.61,30.52-12.29l0.01-34
		v-0.01l44.19-0.01V220.58L153.8,220.58z"/>
	<path class="st0" d="M197.17,199.84c31.79-31.8,83.42-31.8,115.21,0c31.78,31.81,31.78,83.46,0,115.27
		c-31.79,31.8-83.42,31.8-115.21,0C165.38,283.3,165.38,231.65,197.17,199.84L197.17,199.84z"/>
</g>
</svg>
