<?xml version="1.0" encoding="utf-8"?>
<!-- Generator: Adobe Illustrator 24.1.2, SVG Export Plug-In . SVG Version: 6.00 Build 0)  -->
<svg version="1.1" id="Layer_1" xmlns="http://www.w3.org/2000/svg" xmlns:xlink="http://www.w3.org/1999/xlink" x="0px" y="0px"
	 viewBox="0 0 512 512" style="enable-background:new 0 0 512 512;" xml:space="preserve">
<style type="text/css">
	.st0{fill-rule:evenodd;clip-rule:evenodd;fill:#FFFFFF;}
</style>
<g>
	<path class="st0" d="M240.9,502.35l-14.22-14.9l0.29,0.32c-0.14-0.14-0.28-0.29-0.41-0.42l-52.39-54.83
		c-16.06-16.81-10.57-30.47,12.26-30.47h33.91V291.67l-110.35,0.01v33.92c0,22.84-13.64,28.33-30.44,12.26l-38.37-36.7v0.02
		L9.74,271.09c-8.52-8.16-8.52-21.42,0-29.58l14.89-14.23l-0.32,0.29c0.14-0.14,0.29-0.28,0.42-0.41l54.79-52.42
		c16.8-16.08,30.45-10.59,30.45,12.25l0.01,33.93h110.33V110.51h-33.91c-22.83,0-28.32-13.65-12.26-30.47l52.39-54.83
		c0.14-0.14,0.28-0.29,0.41-0.42l-0.29,0.32l14.22-14.9c8.15-8.52,21.41-8.52,29.56,0l30.07,31.46h-0.02l36.68,38.38
		c16.07,16.81,10.58,30.46-12.25,30.46l-33.89,0.01h-0.01l-0.01,110.39h0.03l110.31-0.01l-0.01-33.93
		c0-22.84,13.65-28.33,30.45-12.27l54.81,52.42c0.14,0.14,0.29,0.28,0.42,0.41l-0.32-0.29l14.89,14.23c8.52,8.16,8.52,21.42,0,29.58
		l-31.44,30.09v-0.02l-38.35,36.7c-16.8,16.09-30.44,10.6-30.44-12.24l-0.02-33.91v-0.01H291.04l0.01,110.4h0.01l33.89,0.01
		c22.83,0,28.32,13.64,12.25,30.46l-36.68,38.38h0.02l-30.07,31.46C262.31,510.87,249.06,510.87,240.9,502.35L240.9,502.35z"/>
</g>
</svg>
