<?xml version="1.0" encoding="utf-8"?>
<!-- Generator: Adobe Illustrator 24.1.2, SVG Export Plug-In . SVG Version: 6.00 Build 0)  -->
<svg version="1.1" id="Layer_1" xmlns="http://www.w3.org/2000/svg" xmlns:xlink="http://www.w3.org/1999/xlink" x="0px" y="0px"
	 viewBox="0 0 512 512" style="enable-background:new 0 0 512 512;" xml:space="preserve">
<style type="text/css">
	.st0{fill-rule:evenodd;clip-rule:evenodd;fill:#FFFFFF;}
</style>
<g>
	<path class="st0" d="M13.2,13.39c12.52-12.53,32.85-12.53,45.37,0c12.52,12.52,12.52,32.85,0,45.37
		c-12.52,12.53-32.85,12.53-45.37,0C0.67,46.25,0.67,25.91,13.2,13.39L13.2,13.39z"/>
	<path class="st0" d="M453.69,13.39c12.52-12.53,32.85-12.53,45.37,0c12.52,12.52,12.52,32.85,0,45.37
		c-12.52,12.53-32.85,12.53-45.37,0C441.17,46.25,441.17,25.91,453.69,13.39L453.69,13.39z"/>
	<path class="st0" d="M13.21,454.18c12.52-12.53,32.85-12.53,45.37,0c12.52,12.52,12.52,32.85,0,45.37
		c-12.52,12.53-32.85,12.53-45.37,0C0.68,487.03,0.68,466.7,13.21,454.18L13.21,454.18z"/>
	<path class="st0" d="M453.7,454.18c12.52-12.53,32.85-12.53,45.37,0c12.52,12.52,12.52,32.85,0,45.37
		c-12.52,12.53-32.85,12.53-45.37,0C441.17,487.03,441.17,466.7,453.7,454.18L453.7,454.18z"/>
</g>
</svg>
